# xmcd
#
# Track frame offsets:
#	150
#	6171
#	38092
#	61749
#	83347
#	109062
#	139613
#	168493
#	199057
#	222844
#	246244
#	272986
#	298700
#	324431
#
# Disc length: 4669 seconds
#
# Revision: 3
# Processed by: cddbd v1.5.2PL0 Copyright (c) Steve Scherf et al.
# Submitted via: audiograbber 1.83.01
#
DISCID=c2123b0e
DTITLE=TechnoClub - Vol.30 [CD2)
DYEAR=2009
DGENRE=Techno
TTITLE0=Aly and Fila - Lost Language (Intro)
TTITLE1=John O'Callaghan and Aly and Fila - Megalithic
TTITLE2=Reverse - Distant Destiny
TTITLE3=Sly One - This Last Stage
TTITLE4=Dave Horne meets Econu - Moments (Danny Powers Remix)
TTITLE5=Vast Vision feat. Fisher - Everything (Aly and Fila Remix)
TTITLE6=Mark Andrez and Den Rize - Flames
TTITLE7=Andy Prinz and Simon - Provision (Philippe El Sisi Dub Mix)
TTITLE8=Steve Bengaln and John Vanger - Poizone (Sky Motion Remix)
TTITLE9=Philippe El Sisi - Humble
TTITLE10=Ben Gold - Today
TTITLE11=Dennis Sheperd - Black Sun (Ronski Speed Mix)
TTITLE12=Static Blue and Oliver P - Crimson Skies
TTITLE13=Neptune Project - Aztec (Aly and Fila Remix)
EXTD=
EXTT0=
EXTT1=
EXTT2=
EXTT3=
EXTT4=
EXTT5=
EXTT6=
EXTT7=
EXTT8=
EXTT9=
EXTT10=
EXTT11=
EXTT12=
EXTT13=
PLAYORDER=
